Coordinates
version=1
nRows=29
nColumns=24
inDegrees=yes

Units are S.I. units (second, meters, Newtons, ...)
Angles are in degrees.

endheader
time	pelvis_tilt	pelvis_list	pelvis_rotation	pelvis_tx	pelvis_ty	pelvis_tz	hip_flexion_r	hip_adduction_r	hip_rotation_r	knee_angle_r	ankle_angle_r	subtalar_angle_r	mtp_angle_r	hip_flexion_l	hip_adduction_l	hip_rotation_l	knee_angle_l	ankle_angle_l	subtalar_angle_l	mtp_angle_l	lumbar_extension	lumbar_bending	lumbar_rotation
      1.18683333	      5.40584189	     -0.77077631	    -14.15098648	      0.00131000	      0.88552367	      0.32484495	    -27.60094786	     -0.22170748	      3.31173542	    -10.84820775	     16.78125299	     15.51070887	     17.68384459	     22.45605292	     -5.04842444	    -20.17979114	     -4.95988994	      8.09887740	     -3.59998076	      2.19102719	    -10.79812281	     -0.17214385	     14.72828160
      1.19100000	      5.32670470	     -0.68287813	    -14.18934747	      0.00743463	      0.88471228	      0.32471452	    -27.67229620	     -0.41433203	      3.26149743	    -11.26271194	     16.40477549	     15.50574743	     17.77066049	     22.55927853	     -4.96343114	    -20.12045397	     -5.52549825	      8.07244430	     -3.60530136	      2.21655248	    -10.64871432	     -0.35777341	     14.73520505
      1.19516667	      5.18608574	     -0.60068504	    -14.21469545	      0.01358598	      0.88383911	      0.32456360	    -27.65654001	     -0.57921858	      3.23479362	    -11.72202704	     16.00777163	     15.53399746	     18.04789579	     22.73823156	     -4.89893729	    -20.03265186	     -6.14186295	      8.03867932	     -3.52505394	      2.29624068	    -10.44131244	     -0.53384107	     14.72891687
      1.19933333	      5.14853231	     -0.49326242	    -14.24707256	      0.01980723	      0.88313148	      0.32438284	    -27.73054047	     -0.80609083	      3.12869924	    -12.19964218	     15.50745266	     15.47524547	     22.65228489	     22.78351289	     -4.77697801	    -20.02827691	     -6.73134367	      7.92233572	     -3.47112596	      3.60506743	    -10.34484421	     -0.74610583	     14.68917897
      1.20350000	      5.07396227	     -0.38902855	    -14.25661409	      0.02609023	      0.88241027	      0.32418116	    -27.77386961	     -1.00564987	      3.07335196	    -12.66889320	     15.00618294	     15.44615417	     22.69073732	     22.83646121	     -4.63472824	    -19.85157391	     -7.26663810	      7.76078982	     -3.60940809	      3.62162847	    -10.18962529	     -0.95421299	     14.69284107
      1.20766667	      5.02159983	     -0.27555948	    -14.26484274	      0.03240574	      0.88174231	      0.32396255	    -27.80666589	     -1.22168655	      2.97805221	    -13.20197498	     14.49987646	     15.39506736	     22.73994605	     22.86610999	     -4.47708455	    -19.71931087	     -7.82040290	      7.55746666	     -3.73250905	      3.63830825	    -10.05780517	     -1.16676837	     14.67545829
      1.21183333	      4.89380981	     -0.15805751	    -14.24786565	      0.03872303	      0.88099635	      0.32367949	    -27.71756926	     -1.41120536	      2.88844633	    -13.81896239	     14.01036961	     15.40770561	     23.09121793	     22.96334631	     -4.29794553	    -19.39728785	     -8.32783745	      7.21736465	     -4.12655215	      3.74575035	     -9.85305586	     -1.36759477	     14.57940688
      1.21600000	      4.86730970	     -0.01863770	    -14.23846706	      0.04515698	      0.88042499	      0.32342311	    -27.75094093	     -1.65386819	      2.76342845	    -14.38975005	     13.39801526	     15.35237944	     23.18140298	     22.95485650	     -4.09314108	    -19.29134792	     -8.87883423	      6.94538500	     -4.21328773	      3.77265526	     -9.72918245	     -1.62470272	     14.56814469
      1.22016667	      4.79366630	      0.15468392	    -14.22588180	      0.05160886	      0.87982097	      0.32311467	    -27.68493230	     -1.92497243	      2.60562288	    -15.02712523	     12.74758899	     15.32867184	     28.14931235	     22.96734439	     -3.82740423	    -19.01448801	     -9.33194902	      6.43315969	     -4.71316124	      5.21832312	     -9.56257398	     -1.93249887	     14.50373532
      1.22433333	      4.71797029	      0.29173754	    -14.17246657	      0.05807712	      0.87924399	      0.32278124	    -27.61990632	     -2.13332887	      2.46824799	    -15.68141624	     12.04471704	     15.30855928	     28.19341756	     23.01978195	     -3.61033173	    -18.79462054	     -9.89448589	      6.08811322	     -4.87876331	      5.23403768	     -9.40009757	     -2.17525634	     14.43329893
      1.22850000	      4.62276659	      0.45106939	    -14.11560481	      0.06453119	      0.87866072	      0.32238530	    -27.47149154	     -2.36388894	      2.28128235	    -16.45086196	     11.42784711	     15.30193048	     28.42173521	     23.07989720	     -3.34318474	    -18.44940570	    -10.39868708	      5.57336317	     -5.45813208	      5.29509822	     -9.21923176	     -2.41673549	     14.28197982
      1.23266667	      4.54911640	      0.62981708	    -14.05108227	      0.07104778	      0.87814876	      0.32198359	    -27.33864874	     -2.61853465	      2.07937454	    -17.21601515	     10.72724481	     15.31173219	     28.80374771	     23.11811080	     -3.05085006	    -18.15000813	    -10.90872340	      5.05030101	     -5.96241570	      5.39084456	     -9.04978427	     -2.70743652	     14.17369040
      1.23683333	      4.54915334	      0.84482318	    -14.01521438	      0.07762779	      0.87778782	      0.32162553	    -27.26622363	     -2.94337076	      1.87455632	    -17.98167813	      9.90797641	     15.27516923	     32.31987169	     23.05880009	     -2.71566583	    -17.96698825	    -11.38449311	      4.47434318	     -6.43554929	      6.24886800	     -8.95019166	     -3.07576545	     14.09718380
      1.24100000	      4.41616015	      0.99663736	    -13.87842421	      0.08414167	      0.87722511	      0.32113652	    -27.03192812	     -3.12322654	      1.63822814	    -18.82769360	      9.12916694	     15.25713015	     32.45403974	     23.24260915	     -2.47141756	    -17.67094713	    -12.08165471	      4.07131725	     -6.78697200	      6.27941938	     -8.73256565	     -3.30721317	     13.95931349
      1.24516667	      4.33624420	      1.19386289	    -13.76787912	      0.09069955	      0.87679360	      0.32066353	    -26.82020156	     -3.37947849	      1.38633296	    -19.70795688	      8.32622581	     15.26043930	     32.70383163	     23.33066281	     -2.15575190	    -17.37247361	    -12.68219955	      3.55161976	     -7.31360785	      6.32415273	     -8.55771923	     -3.61756545	     13.80674684
      1.24933333	      4.25818918	      1.39338697	    -13.64160879	      0.09725923	      0.87639578	      0.32016064	    -26.58704496	     -3.63628450	      1.11374888	    -20.62381835	      7.47948557	     15.26523103	     33.02336672	     23.43579931	     -1.83952428	    -17.09059161	    -13.32778258	      3.07042448	     -7.78855391	      6.37385028	     -8.39058765	     -3.92798962	     13.65730959
      1.25350000	      4.21630989	      1.60322390	    -13.51064448	      0.10388338	      0.87608836	      0.31969405	    -26.40233595	     -3.90656901	      0.85506605	    -21.50072799	      6.51668198	     15.24415707	     33.18704569	     23.52316477	     -1.52774040	    -16.92256467	    -14.04756327	      2.72192242	     -8.04000544	      6.39565910	     -8.25306310	     -4.29781403	     13.57264641
      1.25766667	      4.15798448	      1.82991844	    -13.36065189	      0.11043577	      0.87576197	      0.31910027	    -26.11917773	     -4.20888065	      0.47611054	    -22.51834268	      5.61675211	     15.26408327	     37.96109382	     23.62780513	     -1.16264453	    -16.58960595	    -14.72690079	      2.25789489	     -8.69449978	      6.96762744	     -8.11344589	     -4.62970950	     13.42208130
      1.26183333	      4.06891690	      2.02099493	    -13.18232358	      0.11698363	      0.87544774	      0.31852500	    -25.81205850	     -4.44135746	      0.17623659	    -23.52553338	      4.64440416	     15.24593654	     38.01673155	     23.80442817	     -0.86388539	    -16.30926496	    -15.52891107	      1.93759078	     -9.07644182	      6.96629443	     -7.95647117	     -4.91918626	     13.19952155
      1.26600000	      4.00219680	      2.23541014	    -12.99893468	      0.12354523	      0.87518454	      0.31791532	    -25.50114816	     -4.71420250	     -0.17180978	    -24.56830654	      3.66555903	     15.26680750	     38.13866102	     23.95931960	     -0.52906455	    -16.01999693	    -16.33384249	      1.65932407	     -9.50176900	      6.95761789	     -7.81667293	     -5.25624792	     13.01501937
      1.27016667	      3.94435004	      2.44963480	    -12.80363822	      0.13009899	      0.87497170	      0.31728021	    -25.17488141	     -4.99219112	     -0.54226190	    -25.64616450	      2.64514025	     15.28204684	     38.28121372	     24.11036968	     -0.19175421	    -15.72831461	    -17.16191527	      1.44033299	     -9.84992280	      6.94116250	     -7.69335989	     -5.58020925	     12.84576819
      1.27433333	      3.89046689	      2.66817062	    -12.59670110	      0.13664027	      0.87478882	      0.31661362	    -24.83049262	     -5.27928332	     -0.92824729	    -26.75256477	      1.59818791	     15.30148879	     38.46375794	     24.26825905	      0.15461982	    -15.42223635	    -18.02079054	      1.28189221	    -10.21786548	      6.91123556	     -7.57636710	     -5.91625411	     12.65648793
      1.27850000	      3.88970536	      2.89386992	    -12.39120950	      0.14321456	      0.87472313	      0.31596787	    -24.54411082	     -5.58809163	     -1.31115433	    -27.83532580	      0.45800065	     15.29014062	     38.54152208	     24.36772772	      0.50684879	    -15.18479471	    -18.90291985	      1.25817349	    -10.41184496	      6.89398853	     -7.51852323	     -6.29535615	     12.56048058
      1.28266667	      3.80722092	      3.11233729	    -12.15708276	      0.14968897	      0.87455393	      0.31519738	    -24.09944716	     -5.88547432	     -1.74826032	    -29.05071145	     -0.60169723	     15.32848892	     38.73863630	     24.55840644	      0.87042655	    -14.79615537	    -19.76549818	      1.14833711	    -10.83180454	      6.83516502	     -7.38350457	     -6.58639239	     12.29954610
      1.28683333	      3.84753856	      3.37435638	    -11.91122474	      0.15623384	      0.87459892	      0.31440554	    -23.80813938	     -6.25900118	     -2.24700219	    -30.19793533	     -1.77261794	     15.33936735	     39.68320763	     24.58412117	      1.32819041	    -14.39287288	    -20.55749075	      1.10327165	    -11.29743407	      6.47028265	     -7.39015895	     -6.99636791	     12.05892098
      1.29100000	      3.77904982	      3.58167218	    -11.69174749	      0.16267110	      0.87451523	      0.31366177	    -23.33502086	     -6.56762982	     -2.64671068	    -31.45182791	     -2.93621388	     15.33940917	     39.78044994	     24.76433178	      1.65095260	    -14.13974368	    -21.47710233	      1.21694384	    -11.39583688	      6.41233529	     -7.27337795	     -7.28914568	     11.95032673
      1.29516667	      3.76691376	      3.81549298	    -11.45296199	      0.16911621	      0.87454482	      0.31284900	    -22.91711521	     -6.92388165	     -3.10558309	    -32.69567626	     -4.13925646	     15.32910154	     39.86010699	     24.85111854	      2.04774307	    -13.81308663	    -22.31161126	      1.31960978	    -11.61149476	      6.33320225	     -7.22329156	     -7.62625796	     11.77837243
      1.29933333	      3.79605312	      4.05261762	    -11.22028741	      0.17555012	      0.87466783	      0.31206311	    -22.53287021	     -7.29737011	     -3.55425159	    -33.93418617	     -5.39216820	     15.30347870	     39.87289164	     24.87701810	      2.44874848	    -13.53002357	    -23.12967567	      1.52783772	    -11.74009638	      6.29183265	     -7.23087462	     -8.00520602	     11.68085099
      1.30350000	      3.78297660	      4.30630708	    -10.97516453	      0.18190319	      0.87475048	      0.31116557	    -22.04925220	     -7.70422521	     -4.04937659	    -35.25678505	     -6.58784713	     15.30319724	     39.89012600	     24.92312394	      2.89833534	    -13.14482483	    -23.86307315	      1.64353824	    -12.09783425	      6.11582025	     -7.18929184	     -8.33482178	     11.41991200
